<svg id="Component_11" data-name="Component 11" xmlns="http://www.w3.org/2000/svg" width="30" height="21" viewBox="0 0 30 21">
  <rect id="Rectangle_74" data-name="Rectangle 74" width="30" height="21" fill="rgba(255,255,255,0)"/>
  <path id="Message" d="M20.883,3H9.093C4.973,3,2,5.562,2,8.859v6.282C2,18.438,4.973,21,9.093,21H20.872a8.289,8.289,0,0,0,5.195-1.773,4.9,4.9,0,0,0,1.92-4.131l0-6.237a4.883,4.883,0,0,0-1.921-4.086A8.28,8.28,0,0,0,20.883,3ZM9.093,4.528H20.861a6.01,6.01,0,0,1,3.762,1.287,3.559,3.559,0,0,1,1.393,3l0,6.327a3.581,3.581,0,0,1-1.392,3.043,6.01,6.01,0,0,1-3.762,1.287H9.093c-2.981,0-5.12-1.843-5.12-4.331V8.859C3.973,6.372,6.112,4.528,9.093,4.528Zm13.738,4.11a1.19,1.19,0,0,0-1.386-.119l-5.329,3.3-.153.083a2.241,2.241,0,0,1-2.055-.089L8.54,8.517l-.121-.064a1.188,1.188,0,0,0-1.265.187.656.656,0,0,0,.159,1.074l5.375,3.3.21.118a4.687,4.687,0,0,0,4.441-.114l5.339-3.311.107-.077A.641.641,0,0,0,22.831,8.638Z" fill="#222" fill-rule="evenodd"/>
</svg>
